<svg id="Layer_1" data-name="Layer 1" xmlns="http://www.w3.org/2000/svg" xmlns:xlink="http://www.w3.org/1999/xlink" viewBox="0 0 700 700"><defs><style>.cls-1{fill:url(#linear-gradient);}.cls-2{fill:url(#linear-gradient-2);}.cls-3{fill:url(#linear-gradient-3);}.cls-4{fill:url(#linear-gradient-4);}.cls-5{fill:url(#linear-gradient-5);}.cls-6{fill:url(#linear-gradient-6);}.cls-7{fill:url(#linear-gradient-7);}.cls-8{fill:url(#linear-gradient-8);}.cls-9{fill:url(#linear-gradient-9);}.cls-10{fill:url(#linear-gradient-10);}.cls-11{fill:url(#linear-gradient-11);}.cls-12{fill:url(#linear-gradient-12);}.cls-13{fill:url(#linear-gradient-13);}.cls-14{fill:url(#linear-gradient-14);}.cls-15{fill:url(#linear-gradient-15);}.cls-16{fill:url(#linear-gradient-16);}.cls-17{fill:url(#linear-gradient-17);}.cls-18{fill:url(#linear-gradient-18);}</style><linearGradient id="linear-gradient" x1="284.21" y1="808.92" x2="168.27" y2="801.12" gradientTransform="translate(36.9 -511.76)" gradientUnits="userSpaceOnUse"><stop offset="0" stop-color="#00c4ff"/><stop offset="1" stop-color="#001973"/></linearGradient><linearGradient id="linear-gradient-2" x1="243.43" y1="334.99" x2="180.16" y2="330.74" gradientTransform="translate(13.53 11.93)" gradientUnits="userSpaceOnUse"><stop offset="0" stop-color="#001973"/><stop offset="1" stop-color="#00c4ff"/></linearGradient><linearGradient id="linear-gradient-3" x1="-480.71" y1="3881.07" x2="-596.65" y2="3873.27" gradientTransform="translate(-299.21 4283.91) rotate(180)" xlink:href="#linear-gradient"/><linearGradient id="linear-gradient-4" x1="-521.48" y1="3407.14" x2="-584.75" y2="3402.88" gradientTransform="translate(-275.85 3760.22) rotate(180)" xlink:href="#linear-gradient-2"/><linearGradient id="linear-gradient-5" x1="323.65" y1="310.1" x2="511.84" y2="405.38" gradientTransform="matrix(1, 0, 0, 1, 0, 0)" xlink:href="#linear-gradient"/><linearGradient id="linear-gradient-6" x1="327.63" y1="302.25" x2="515.81" y2="397.53" gradientTransform="matrix(1, 0, 0, 1, 0, 0)" xlink:href="#linear-gradient"/><linearGradient id="linear-gradient-7" x1="332.46" y1="292.71" x2="520.65" y2="387.98" gradientTransform="matrix(1, 0, 0, 1, 0, 0)" xlink:href="#linear-gradient"/><linearGradient id="linear-gradient-8" x1="338.89" y1="279.99" x2="527.08" y2="375.26" gradientTransform="matrix(1, 0, 0, 1, 0, 0)" xlink:href="#linear-gradient"/><linearGradient id="linear-gradient-9" x1="344.42" y1="269.07" x2="532.61" y2="364.35" gradientTransform="matrix(1, 0, 0, 1, 0, 0)" xlink:href="#linear-gradient"/><linearGradient id="linear-gradient-10" x1="349.47" y1="259.11" x2="537.66" y2="354.38" gradientTransform="matrix(1, 0, 0, 1, 0, 0)" xlink:href="#linear-gradient"/><linearGradient id="linear-gradient-11" x1="351.22" y1="255.65" x2="539.41" y2="350.92" gradientTransform="matrix(1, 0, 0, 1, 0, 0)" xlink:href="#linear-gradient"/><linearGradient id="linear-gradient-12" x1="302.85" y1="351.19" x2="491.04" y2="446.46" gradientTransform="matrix(1, 0, 0, 1, 0, 0)" xlink:href="#linear-gradient"/><linearGradient id="linear-gradient-13" x1="307.11" y1="342.77" x2="495.3" y2="438.05" gradientTransform="matrix(1, 0, 0, 1, 0, 0)" xlink:href="#linear-gradient"/><linearGradient id="linear-gradient-14" x1="308.94" y1="339.17" x2="497.13" y2="434.44" gradientTransform="matrix(1, 0, 0, 1, 0, 0)" xlink:href="#linear-gradient"/><linearGradient id="linear-gradient-15" x1="316.28" y1="324.66" x2="504.47" y2="419.93" gradientTransform="matrix(1, 0, 0, 1, 0, 0)" xlink:href="#linear-gradient"/><linearGradient id="linear-gradient-16" x1="321.11" y1="315.11" x2="509.3" y2="410.39" gradientTransform="matrix(1, 0, 0, 1, 0, 0)" xlink:href="#linear-gradient"/><linearGradient id="linear-gradient-17" x1="327.55" y1="302.4" x2="515.74" y2="397.67" gradientTransform="matrix(1, 0, 0, 1, 0, 0)" xlink:href="#linear-gradient"/><linearGradient id="linear-gradient-18" x1="333.01" y1="291.61" x2="521.2" y2="386.88" gradientTransform="matrix(1, 0, 0, 1, 0, 0)" xlink:href="#linear-gradient"/></defs><path class="cls-1" d="M307.81,257.93c.38,13.9-5.44,22.89-17.27,29.83-14.5,8.5-29.48,17.25-44.07,25.64-16.17,9.31-20.19,20.68-8.58,35.68-3.78,8.28-16.94,6.76-24.2,5.56-8.13-4.95-10.5-15.76-10-24.6.66-12.58,7.32-24.54,16.46-33.05q43.74-33,87.62-65.81Q307.73,244.56,307.81,257.93Z"/><path class="cls-2" d="M237.89,349.08s-1.77-1.43-4.68-4c-13.78-12.29-31.78-31.3-13.1-48.07a80.85,80.85,0,0,0-15.74,16.24c-13.22,17.7-10.64,46.16-10,67.4.31,10.21,12.37,12.47,20,8.39,8.44-4.49,17.45-9.54,25.63-13.94C252.57,368.33,246.4,355.93,237.89,349.08Z"/><path class="cls-3" d="M194.79,442.07c-.38-13.9,5.43-22.89,17.27-29.83,14.5-8.5,29.48-17.25,44.06-25.64,16.17-9.31,20.2-20.69,8.59-35.68,3.78-8.28,16.93-6.76,24.2-5.56,8.13,4.95,10.49,15.76,10,24.6-.65,12.57-7.32,24.54-16.45,33.05q-43.76,33-87.62,65.81Q194.87,455.44,194.79,442.07Z"/><path class="cls-4" d="M264.71,350.92s1.76,1.43,4.67,4c13.8,12.3,31.79,31.29,13.11,48.07a80.59,80.59,0,0,0,15.74-16.24c13.22-17.7,10.65-46.17,10-67.4-.31-10.21-12.37-12.47-20-8.39-8.45,4.49-17.46,9.53-25.63,13.94C250,331.67,256.2,344.07,264.71,350.92Z"/><path class="cls-5" d="M330.2,313.73h-3v-6.27h3v-6h7.54v6h4.94v6.27h-4.94v9.88c0,1.45.62,2.07,2.3,2.07h2.69v6.4h-3.84c-5.12,0-8.69-2.16-8.69-8.56Z"/><path class="cls-6" d="M356.27,307.11a8.57,8.57,0,0,1,7.59,3.84v-3.49h7.54v24.62h-7.54v-3.49a8.71,8.71,0,0,1-7.63,3.84c-6,0-10.81-4.94-10.81-12.7S350.23,307.11,356.27,307.11Zm2.21,6.57c-2.83,0-5.39,2.12-5.39,6.05s2.56,6.13,5.39,6.13,5.38-2.16,5.38-6.09S361.34,313.68,358.48,313.68Z"/><path class="cls-7" d="M393.86,318.71c0-3.35-1.86-5.2-4.72-5.2s-4.72,1.85-4.72,5.2v13.37h-7.55V307.46h7.55v3.27a9,9,0,0,1,7.45-3.53c5.69,0,9.49,3.88,9.49,10.5v14.38h-7.5Z"/><path class="cls-8" d="M417.46,307.11c6.18,0,10.54,3.4,11.82,9.26h-8a3.88,3.88,0,0,0-3.92-2.82c-2.69,0-4.55,2.12-4.55,6.22s1.86,6.22,4.55,6.22a3.82,3.82,0,0,0,3.92-2.82h8c-1.28,5.69-5.64,9.26-11.82,9.26-7.23,0-12.35-4.85-12.35-12.66S410.23,307.11,417.46,307.11Z"/><path class="cls-9" d="M444.5,332.43c-7.23,0-12.7-4.85-12.7-12.66s5.6-12.66,12.79-12.66,12.79,4.85,12.79,12.66S451.74,332.43,444.5,332.43Zm0-6.53c2.69,0,5.21-2,5.21-6.13s-2.47-6.13-5.12-6.13-5.12,1.94-5.12,6.13S441.77,325.9,444.5,325.9Z"/><path class="cls-10" d="M468.94,332.08H461.4V307.46h7.54v4.11a9.19,9.19,0,0,1,7.72-4.37v8h-2.07c-3.57,0-5.65,1.24-5.65,5.47Z"/><path class="cls-11" d="M495.41,307.11c6,0,10.85,4.85,10.85,12.62s-4.8,12.7-10.85,12.7a8.85,8.85,0,0,1-7.58-3.79v15.17h-7.55V307.46h7.55V311A8.67,8.67,0,0,1,495.41,307.11Zm-2.25,6.57c-2.82,0-5.38,2.16-5.38,6.09s2.56,6.09,5.38,6.09,5.43-2.21,5.43-6.13S496,313.68,493.16,313.68Z"/><path class="cls-12" d="M329,354.05h20.16v6H336.55v6.53H346v5.87h-9.44V385H329Z"/><path class="cls-13" d="M352.43,353.79a4.5,4.5,0,1,1,4.5,4C354.24,357.84,352.43,356,352.43,353.79Zm.71,6.61h7.54V385h-7.54Z"/><path class="cls-14" d="M383.14,371.65c0-3.35-1.85-5.2-4.72-5.2s-4.72,1.85-4.72,5.2V385h-7.55V360.4h7.55v3.27a9,9,0,0,1,7.45-3.53c5.69,0,9.49,3.88,9.49,10.5V385h-7.5Z"/><path class="cls-15" d="M405.24,360.05a8.59,8.59,0,0,1,7.59,3.84V360.4h7.54V385h-7.54v-3.49a8.71,8.71,0,0,1-7.63,3.84c-6,0-10.81-4.94-10.81-12.7S399.2,360.05,405.24,360.05Zm2.21,6.57c-2.83,0-5.39,2.12-5.39,6.05s2.56,6.13,5.39,6.13,5.38-2.16,5.38-6.09S410.31,366.62,407.45,366.62Z"/><path class="cls-16" d="M442.83,371.65c0-3.35-1.86-5.2-4.72-5.2s-4.72,1.85-4.72,5.2V385h-7.55V360.4h7.55v3.27a9,9,0,0,1,7.45-3.53c5.69,0,9.49,3.88,9.49,10.5V385h-7.5Z"/><path class="cls-17" d="M466.43,360.05c6.18,0,10.54,3.4,11.82,9.26h-8a3.88,3.88,0,0,0-3.92-2.82c-2.69,0-4.55,2.12-4.55,6.22s1.86,6.22,4.55,6.22a3.82,3.82,0,0,0,3.92-2.82h8c-1.28,5.69-5.64,9.26-11.82,9.26-7.23,0-12.35-4.85-12.35-12.66S459.2,360.05,466.43,360.05Z"/><path class="cls-18" d="M493.21,385.37c-7.24,0-12.44-4.85-12.44-12.66s5.12-12.66,12.44-12.66,12.26,4.76,12.26,12.26a18.68,18.68,0,0,1-.13,2.21H488.27c.26,3.22,2.25,4.72,4.67,4.72a4,4,0,0,0,3.93-2.38h8C503.71,381.67,499.34,385.37,493.21,385.37Zm-4.9-15h9.44c0-2.69-2.12-4.24-4.63-4.24A4.67,4.67,0,0,0,488.31,370.33Z"/></svg>