<svg id="Layer_1" data-name="Layer 1" xmlns="http://www.w3.org/2000/svg" xmlns:xlink="http://www.w3.org/1999/xlink" viewBox="0 0 700 700"><defs><style>.cls-1{fill:url(#linear-gradient);}.cls-2{fill:url(#linear-gradient-2);}.cls-3{fill:url(#linear-gradient-3);}.cls-4{fill:url(#linear-gradient-4);}</style><linearGradient id="linear-gradient" x1="473.33" y1="743.11" x2="207.21" y2="725.2" gradientTransform="translate(36.9 -511.76)" gradientUnits="userSpaceOnUse"><stop offset="0" stop-color="#00c4ff"/><stop offset="1" stop-color="#001973"/></linearGradient><linearGradient id="linear-gradient-2" x1="349.46" y1="333.63" x2="204.25" y2="323.86" gradientTransform="translate(13.53 11.93)" gradientUnits="userSpaceOnUse"><stop offset="0" stop-color="#001973"/><stop offset="1" stop-color="#00c4ff"/></linearGradient><linearGradient id="linear-gradient-3" x1="-1928.98" y1="3810.01" x2="-2195.1" y2="3792.1" gradientTransform="translate(-1739.21 4283.91) rotate(180)" xlink:href="#linear-gradient"/><linearGradient id="linear-gradient-4" x1="-2052.85" y1="3400.54" x2="-2198.07" y2="3390.76" gradientTransform="translate(-1715.85 3760.22) rotate(180)" xlink:href="#linear-gradient-2"/></defs><path class="cls-1" d="M479.7,141.3c.88,31.9-12.48,52.54-39.64,68.47-33.27,19.5-67.65,39.58-101.14,58.85-37.12,21.36-46.36,47.47-19.71,81.9-8.66,19-38.86,15.51-55.53,12.75-18.67-11.35-24.11-36.16-23.05-56.47,1.51-28.86,16.81-56.32,37.77-75.85q100.43-75.7,201.12-151.06Q479.52,110.6,479.7,141.3Z"/><path class="cls-2" d="M319.21,350.52s-4-3.28-10.72-9.24c-31.65-28.21-73-71.83-30.09-110.33-14.13,10.71-25.94,23.64-36.12,37.28-30.34,40.61-24.43,106-23,154.7.7,23.43,28.38,28.63,46,19.26,19.39-10.32,40.08-21.89,58.84-32C352.91,394.7,338.75,366.24,319.21,350.52Z"/><path class="cls-3" d="M220.3,564c-.88-31.91,12.46-52.54,39.64-68.47,33.27-19.5,67.65-39.59,101.13-58.86,37.11-21.35,46.36-47.47,19.71-81.89,8.67-19,38.87-15.51,55.54-12.76,18.66,11.36,24.09,36.18,23,56.47-1.5,28.85-16.81,56.33-37.76,75.85Q321.16,550,220.47,625.35,220.47,594.65,220.3,564Z"/><path class="cls-4" d="M380.78,354.73s4.05,3.28,10.73,9.23c31.66,28.22,72.95,71.83,30.09,110.33,14.12-10.7,25.92-23.63,36.11-37.27,30.35-40.62,24.45-106,23-154.7-.71-23.44-28.38-28.63-46-19.26-19.39,10.31-40.07,21.88-58.83,32C347.09,310.55,361.25,339,380.78,354.73Z"/></svg>